<svg xmlns="http://www.w3.org/2000/svg" viewBox="0 0 470.9 512.85" width="32" height="32">
  <g>
    <path fill="#424e53" d="M422.21,108.22l-40.84-11.05-3.44-1.5-14.39-44.21c12.28-14.46,23.98-25.66,35.42-39.95-50.45-3.12-92.85,42.95-66.52,91.73l-63.46,70.77-15.08-.3,65.12-72.51c-25.28-57.69,31.81-109.83,88.51-100.03,2.83.37,5.86.53,7.18,3.05.79,1.51,2.71,4.68.95,6.65l-39.23,43.73,10.38,32.05,31.78,9.08,37.82-40.09c2.45-2.6,5.06-3.34,8.44-1.81,2.15.97,3.2,3.3,3.75,6.39,13.48,56.29-34.24,119.44-94.55,94.59l-17.84,19.1-8.97.13c-1.63.02-3.59.45-5.55-.78l27.71-31.29c53.45,21.29,101.38-15.14,89.45-68.91-.25-1.11,0,0-.24-1.16"/>
    <path fill="#424e52" d="M215.03,173.38c-4.4.63-8.92.25-13.9.15-15.68-16.97-47.67-52.82-63.03-70.35C164.33,55.78,120.73,7.13,70.87,12.07l35.41,39.5-13.99,44.09c-10.9,3.57-33.15,10.07-44.23,12.72L13.28,72.06c-12.09,44.48,34.77,96.76,84.89,69.01,10.95,9.25,20.71,21.11,30.04,32.01-4.07,1.76-8.78.12-14.06.94l-18.03-19.42C52.01,173.89,5,140.32.87,94.32c-1.2-7.83-2.14-36.9,4.26-40.17,1.77-.9,4.98-2.03,6.63-.31l39.74,41.63,31.4-8.56,10.73-32.14L54.07,10.56c-1.71-1.92.44-5,1.17-6.41,57.11-19.19,122.13,35.47,96.24,96.65,21.03,25.73,44.65,47.69,63.55,72.57Z"/>
    <path fill="#f6952c" d="M185.75,173.51l-40.84.2-10.71-12.42c-12.62-13.12,7.23-34.16,20.57-21.68,10.67,10.97,20.51,22.01,30.98,33.9Z"/>
    <path fill="#f5942a" d="M325.11,173.84l-40.48-.3c11.03-12.02,20.92-23.65,32.2-34.56,11.9-10.53,30.03,6.63,21.39,19.56-3.72,5.71-8.56,10.09-13.11,15.3Z"/>
    <path fill="#f5962f" d="M353.04,230.25c.19,17.65,1.82,35.8-.94,52.93-1.65-2.53-236.56,4.72-234.16-2.82.09-11.06.27-38.56.6-50.03l234.49-.08Z"/>
    <path fill="#434f53" d="M332.7,409.61c-27.09,44.69,13.66,94.76,62.85,91.02l-32.71-38.44c.31-4.28,12.86-36.26,14.56-40.97l44.08-9.56,22.23,23.06,10.49,11.82c4.43,7.06,1.34-25.67.04-27.33-4.87-36.94-44.81-58.29-78.72-43.73l-35.8-40.54c5.52-.87,9.88-.44,14.26-.51l25.25,27.69c60.79-17.87,104.72,48.6,83.67,101.73-1.76.97-5.54,2.98-7.38.99l-37.6-40.81-31.78,6.85-10.44,28.67,37.05,43.78c2.97,3.51-2.83,8.05-6.1,8.38-57.47,9.8-114.95-44.91-86.86-101.66l-66.14-75.3c4.68-.34,9.18-.17,14.7,0l63.09,70.9c1.31,1.47,1.84,2.81,1.26,3.98Z"/>
    <path fill="#424f53" d="M48.5,411.63c9.29,1.48,34.3,7.37,43.77,9.63,2.8,7.49,5.54,14.29,7.72,21.32,2.16,5.13,4.14,10.49,5.8,15.66,1.33,4.14,1.02,2.57,1.33,4.14l-32.41,38.13c51.22,3.32,88.53-46.55,62.21-92.01-.7-1.81,64.54-72.27,65.08-73.75l14.59-.17c-.15,1.77-1.59,3.04-3.12,4.74l-63.22,70.6c27.15,57.17-28.76,110.94-86.31,101.8-2.33-.22-5.33-1.09-6.19-3.06-.56-1.29-2.34-3.71-.67-5.64l37.18-42.94-10.57-29.23-31.23-6.86-37.14,40.23c-2.09,2.26-5.47,1.12-7.3.27-2.33-1.08-3.24-3.35-3.71-6.21-13.26-53.81,27.98-113.99,86.63-95.83,2.54-1.67,24.27-29.85,27.49-28.25,4.03.46,8.06-.42,12.72.61l-36.71,40.76c-12.16-4.64-23.25-5.15-35.37-3.67-2.64.76-5.2,1.58-7.93,2.66-28.25,7.98-43.68,50.99-35.86,72.91"/>
    <path fill="#f6952d" d="M338.4,351.11c9.44,13.24-9.22,31.38-21.45,20.35,0,0-33.65-36.59-33.65-36.59l40.61-.39,14.48,16.63Z"/>
    <path fill="#f8952d" d="M153.36,371.04c-12.97,11.86-32.38-7.56-21.11-20.79,0,0,13.86-15.68,13.86-15.68l40.51.21c-11.07,12.59-21.47,24.39-33.25,36.26Z"/>
  </g>
</svg>
