<?xml version="1.0" encoding="UTF-8"?>
<svg id="Layer_2" data-name="Layer 2" xmlns="http://www.w3.org/2000/svg" viewBox="0 0 470.9 512.85">
  <defs>
    <style>
      .cls-1 {
        fill: #445053;
      }

      .cls-2 {
        fill: #445054;
      }

      .cls-3 {
        fill: #f5942a;
      }

      .cls-4 {
        fill: #f59b34;
      }

      .cls-5 {
        fill: #434f52;
      }

      .cls-6 {
        fill: #434f53;
      }

      .cls-7 {
        fill: #f8952d;
      }

      .cls-8 {
        fill: #464e51;
      }

      .cls-9 {
        fill: #455155;
      }

      .cls-10 {
        fill: #444f53;
      }

      .cls-11 {
        fill: #475053;
      }

      .cls-12 {
        fill: #424f53;
      }

      .cls-13 {
        fill: #f49b38;
      }

      .cls-14 {
        fill: #474f50;
      }

      .cls-15 {
        fill: #f09c38;
      }

      .cls-16 {
        fill: #464d4f;
      }

      .cls-17 {
        fill: #474e50;
      }

      .cls-18 {
        fill: #f39b38;
      }

      .cls-19 {
        fill: #424e52;
      }

      .cls-20 {
        fill: #424e53;
      }

      .cls-21 {
        fill: #424d51;
      }

      .cls-22 {
        fill: #454f53;
      }

      .cls-23 {
        fill: #464e52;
      }

      .cls-24 {
        fill: #455053;
      }

      .cls-25 {
        fill: #f6952d;
      }

      .cls-26 {
        fill: #434e52;
      }

      .cls-27 {
        fill: #f6952c;
      }

      .cls-28 {
        fill: #464d50;
      }

      .cls-29 {
        fill: #444e52;
      }

      .cls-30 {
        fill: #f5962f;
      }

      .cls-31 {
        fill: #475154;
      }
    </style>
  </defs>
  <g id="Layer_1-2" data-name="Layer 1">
    <g>
      <path class="cls-9" d="M356.63,291.28c3.61-.1,8.15.15,11.76.53.96,1.35,1.18,5.42-.07,6.13-2.42,1.2-5.88-.04-8.57.7-1.76,8.39,1.68,17.07-1.83,24.33l-6.79-.26-.5-24.24c-3.18-.54-6.4.68-8.64-.56-1.13-.93-1.05-5.27.25-6.23l14.4-.39Z"/>
      <path class="cls-10" d="M110.78,322.91c-2.28-.32-4.82.62-7.53-.52l12.32-29.52c1.59-1.66,8.34-2.7,9.58-.24,5.21,10.3,8.9,19.9,13.12,30-3.63.75-6.08.3-8.75.15-.89-1.61-1.01-4.27-2.49-5.48-4.35-.04-9.15-1.02-13.06.44-1.72.64-1.02,5.2-3.2,5.17ZM120.85,300.52c-1.82,3.54-2.89,6.27-3.85,9.7,2.34.69,4.53.67,7.38.04l-3.53-9.74Z"/>
      <path class="cls-20" d="M422.21,108.22l-40.84-11.05-3.44-1.5-14.39-44.21c12.28-14.46,23.98-25.66,35.42-39.95-50.45-3.12-92.85,42.95-66.52,91.73l-63.46,70.77-15.08-.3,65.12-72.51c-25.28-57.69,31.81-109.83,88.51-100.03,2.83.37,5.86.53,7.18,3.05.79,1.51,2.71,4.68.95,6.65l-39.23,43.73,10.38,32.05,31.78,9.08,37.82-40.09c2.45-2.6,5.06-3.34,8.44-1.81,2.15.97,3.2,3.3,3.75,6.39,13.48,56.29-34.24,119.44-94.55,94.59l-17.84,19.1-8.97.13c-1.63.02-3.59.45-5.55-.78l27.71-31.29c53.45,21.29,101.38-15.14,89.45-68.91-.25-1.11,0,0-.24-1.16"/>
      <path class="cls-19" d="M215.03,173.38c-4.4.63-8.92.25-13.9.15-15.68-16.97-47.67-52.82-63.03-70.35C164.33,55.78,120.73,7.13,70.87,12.07l35.41,39.5-13.99,44.09c-10.9,3.57-33.15,10.07-44.23,12.72L13.28,72.06c-12.09,44.48,34.77,96.76,84.89,69.01,10.95,9.25,20.71,21.11,30.04,32.01-4.07,1.76-8.78.12-14.06.94l-18.03-19.42C52.01,173.89,5,140.32.87,94.32c-1.2-7.83-2.14-36.9,4.26-40.17,1.77-.9,4.98-2.03,6.63-.31l39.74,41.63,31.4-8.56,10.73-32.14L54.07,10.56c-1.71-1.92.44-5,1.17-6.41,57.11-19.19,122.13,35.47,96.24,96.65,21.03,25.73,44.65,47.69,63.55,72.57Z"/>
      <path class="cls-27" d="M185.75,173.51l-40.84.2-10.71-12.42c-12.62-13.12,7.23-34.16,20.57-21.68,10.67,10.97,20.51,22.01,30.98,33.9Z"/>
      <path class="cls-3" d="M325.11,173.84l-40.48-.3c11.03-12.02,20.92-23.65,32.2-34.56,11.9-10.53,30.03,6.63,21.39,19.56-3.72,5.71-8.56,10.09-13.11,15.3Z"/>
      <path class="cls-29" d="M317.21,199.89l14.89,21.45c-14.12,2.66-13.52-3.83-21.18-13.37-6.83,5.51-4.82,4.83-5.21,13.31-3.18.61-6.32.73-9.71.12l-.06-36.2c3.03-.84,5.96-.53,9.6-.34l.86,14.45,13.53-14.57c3.75-.08,6.96-.62,10.99.15l-13.72,15.01Z"/>
      <path class="cls-5" d="M239.83,185.02c3.68-.76,6.55-.51,9.88-.09-.36,14.49,4.46,38.2-17.42,37.57-22.01-.45-16.04-23.03-16.75-37.66,3.38-.49,5.97-.29,9.39-.13l.48,22.49c.09,4.33,3.7,6.84,7.35,6.75,4.06-.1,7.09-3.18,7.08-7.73l-.03-21.19Z"/>
      <path class="cls-21" d="M265.23,202.79c-.31,10.68,12.51,14.81,18.92,6.56l6.58,5.96c-8.25,11.11-28.95,8.3-33.86-4.06-10.07-21.63,20.44-37.72,34.16-20.06l-6.6,5.53c-6.02-7.62-18.91-5.01-19.22,6.07Z"/>
      <path class="cls-1" d="M160.57,221.17c-3.44.55-6.28.34-9.83.05l-.29-28.25-10.93-.43c-.47-2.74-.79-5.44.1-7.98l32.07.14c.4,2.7.51,4.98-.05,7.65l-10.99.51-.08,28.31Z"/>
      <path class="cls-2" d="M209.42,221.31c-19.59,4.2-9.57-13.85-22.46-9.12l-.72,9.26c-3.3.38-6.16.26-9.61.12l-.12-36.89c11.03.46,29.12-3.24,32.22,9.51,1.55,6.36-.57,12.04-6.26,15.6l6.96,11.52ZM199.19,197.96c.26-6.06-8.34-5.6-12.56-4.85l.02,10.06c2.89.66,5.73.61,8.68-.04,2.7-.6,3.8-2.94,3.86-5.16Z"/>
      <path class="cls-6" d="M332.7,409.61c-27.09,44.69,13.66,94.76,62.85,91.02l-32.71-38.44c.31-4.28,12.86-36.26,14.56-40.97l44.08-9.56,22.23,23.06,10.49,11.82c4.43,7.06,1.34-25.67.04-27.33-4.87-36.94-44.81-58.29-78.72-43.73l-35.8-40.54c5.52-.87,9.88-.44,14.26-.51l25.25,27.69c60.79-17.87,104.72,48.6,83.67,101.73-1.76.97-5.54,2.98-7.38.99l-37.6-40.81-31.78,6.85-10.44,28.67,37.05,43.78c2.97,3.51-2.83,8.05-6.1,8.38-57.47,9.8-114.95-44.91-86.86-101.66l-66.14-75.3c4.68-.34,9.18-.17,14.7,0l63.09,70.9c1.31,1.47,1.84,2.81,1.26,3.98Z"/>
      <path class="cls-12" d="M48.5,411.63c9.29,1.48,34.3,7.37,43.77,9.63,2.8,7.49,5.54,14.29,7.72,21.32,2.16,5.13,4.14,10.49,5.8,15.66,1.33,4.14,1.02,2.57,1.33,4.14l-32.41,38.13c51.22,3.32,88.53-46.55,62.21-92.01-.7-1.81,64.54-72.27,65.08-73.75l14.59-.17c-.15,1.77-1.59,3.04-3.12,4.74l-63.22,70.6c27.15,57.17-28.76,110.94-86.31,101.8-2.33-.22-5.33-1.09-6.19-3.06-.56-1.29-2.34-3.71-.67-5.64l37.18-42.94-10.57-29.23-31.23-6.86-37.14,40.23c-2.09,2.26-5.47,1.12-7.3.27-2.33-1.08-3.24-3.35-3.71-6.21-13.26-53.81,27.98-113.99,86.63-95.83,2.54-1.67,24.27-29.85,27.49-28.25,4.03.46,8.06-.42,12.72.61l-36.71,40.76c-12.16-4.64-23.25-5.15-35.37-3.67-2.64.76-5.2,1.58-7.93,2.66-28.25,7.98-43.68,50.99-35.86,72.91"/>
      <path class="cls-25" d="M338.4,351.11c9.44,13.24-9.22,31.38-21.45,20.35,0,0-33.65-36.59-33.65-36.59l40.61-.39,14.48,16.63Z"/>
      <path class="cls-7" d="M153.36,371.04c-12.97,11.86-32.38-7.56-21.11-20.79,0,0,13.86-15.68,13.86-15.68l40.51.21c-11.07,12.59-21.47,24.39-33.25,36.26Z"/>
      <path class="cls-22" d="M337.45,322.63c-2.24.43-5.68.9-7.19-.13l-13.58-16.22-.68,16.48c-2.61.26-5.03.21-7.93.04v-30.91c2.43-.25,5.83-1.29,7.42.28,5.04,4.99,8.53,10.77,13.32,16.09l.7-16.36c2.8-.44,5.18-.59,8.09.05l-.15,30.69Z"/>
      <path class="cls-11" d="M190.7,321.82c-7.17,3.19-15.09,1.83-21.35-2.23.76-2.84,1.33-4.64,2.55-6.6,3.55,2.98,15.67,6.14,15.36.8-.29-5-19.43-1.6-17.22-14.55,1.75-10.23,18.09-9.95,24.99-5.42-.78,2.43-1.55,4.45-2.82,6.49-3.17-1.79-13.22-4.74-13.41.09-.03.79.79,1.98,2,2.31l7.9,2.17c8.31,1.64,10.32,12.96,2,16.93Z"/>
      <path class="cls-11" d="M236.2,321.82c-6.93,3.22-14.86,1.85-21.41-1.9.35-2.74,1.25-4.71,2.79-6.91,4.19,3.94,15.32,5.33,14.89.83-.07-.73-.69-1.87-2.15-2.28l-10.02-2.84c-3.24-.92-4.86-3.98-4.99-6.72-.57-12.45,16.66-13.43,24.8-8.21-.6,2.47-1.49,4.3-2.32,6.44-3.47-2.04-13.52-4.51-13.77-.08-.07,1.27.94,2.19,2.22,2.55l8.26,2.38c8.36,2.02,9.16,13.18,1.7,16.73Z"/>
      <path class="cls-11" d="M160.54,322.05c-7.07,2.93-14.3,1.45-20.86-2.11.15-2.43,1.33-4.18,2.45-6.85,3.35,2.43,13.72,6.01,15.36,1.6,2.34-6.28-18.47-1.69-17.15-14.54,1.43-11.11,16.87-11.07,24.88-6.36-.73,2.35-1.55,4.1-2.76,6.45-4.1-1.89-11.38-4.23-13.16-.67-2.86,5.72,15.95,2,16.94,13.28.32,3.58-1.57,7.5-5.71,9.21Z"/>
      <path class="cls-24" d="M260.81,322.51c-2.9.79-5.34.38-8.08.2l-.28-23.97-8.85-.73c-1.12-1.12-.66-4-.46-6.47l27.17.03c2.48,8.97-2.81,6.43-9.18,6.89l-.32,24.05Z"/>
      <path class="cls-31" d="M209.53,322.02c-2.36,1.96-5.26.72-8.41.82l-.11-30.92c2.98-.61,5.29-.54,8.22-.05l.3,30.15Z"/>
      <path class="cls-26" d="M293.39,317.85c-4.17-1.78-8.81-.2-13.26-.82-2.56,7.09-3.7,6.58-10.97,5.49l13.34-30.96c3.21-.03,5.51-.28,8.54.19l13.42,30.41c-2.82,1.18-5.81.87-8.61.45-1.42-.21-1-3.87-2.45-4.78ZM286.24,300.53l-3.47,9.73c2.82.67,5.09.71,7.54-.09-1.49-3.89-2.46-6.65-4.07-9.64Z"/>
      <path class="cls-30" d="M353.04,230.25c.19,17.65,1.82,35.8-.94,52.93-1.65-2.53-236.56,4.72-234.16-2.82.09-11.06.27-38.56.6-50.03l234.49-.08Z"/>
      <path class="cls-14" d="M202.32,260.63l-16.17.39c-.51,2.18-.58,4.02-.01,6.03l18.87.2c.39,2.96.52,5.25-.05,7.73l-28.82-.05.1-35.69,27.71.04c.65,2.74.55,5.1-.01,7.4l-17.14.68c-1.41.27-1.46,5.12-.09,5.53l15.34.42c.93,1.98.69,4.02.27,7.31Z"/>
      <path class="cls-23" d="M296.2,274.77c-3.52.43-6.46.41-9.76-.09l.17-35.3c3.44-.23,5.83-.17,9.35-.03l.24,35.43Z"/>
      <path class="cls-8" d="M160.24,274.61c-3.08-1.33-3.89-6.45-6.35-8.59-8.48-3.43-6,3.42-6.78,8.81-3.28.21-6.29.27-9.62-.17l.12-35.49c10.98.41,28.77-3.2,31.73,9.32,1.37,5.79-.51,11.89-6.2,15.38l6.69,10.68c-2.75.2-6.62,1.32-9.58.04Z"/>
      <path class="cls-13" d="M155.78,257.42c-3,.5-5.49.27-8.09.19-.47-3.37-.27-6.09-.3-9.94,4.32-.86,13.08-1.7,12.66,4.77-.12,2.01-1.38,4.49-4.27,4.98Z"/>
      <path class="cls-28" d="M336.32,274.55c-19,4.47-8.89-12.81-21.82-8.57-1.68,2.54-.13,5.77-.84,8.93-3.24.37-6.14.34-9.42-.06l-.08-35.62c11.65.45,28.96-3.42,31.8,10.22,1.13,5.42-.94,10.99-6.12,14.32l6.48,10.77Z"/>
      <path class="cls-4" d="M322.64,257.27c-2.81.6-5.55.36-8.54.15-.47-3.36-.4-6.46.03-9.89,4.47-.38,12.83-1.76,12.29,4.89-.08,2.06-1.26,4.3-3.79,4.84Z"/>
      <path class="cls-16" d="M270.24,268.71l-15.62-.31c-1.69,2.12-1.95,4.19-3.27,6.42-3.37.18-6.43.63-9.63-.37l15.46-35.39c3.83.18,6.69-.21,9.91.33l15.63,35.27c-6.46.75-11.44,2.7-12.47-5.94Z"/>
      <path class="cls-15" d="M265.87,259.82c-2.22,1.81-5.05.88-7.88.45,1.29-3.92,2.42-6.95,4.07-10.31l3.81,9.86Z"/>
      <path class="cls-17" d="M221.86,265.69c-1.5,2.73-.36,5.61-.85,9.04-3.07.54-5.92.28-9.35.19l-.09-35.7c11.07.48,27.77-3.21,31.03,9.33,3.69,12.75-9.23,18.75-20.75,17.14Z"/>
      <path class="cls-18" d="M229.81,257.38c-3.01.89-5.27.47-8.25.41-.54-3.54-.35-6.17-.18-10.12,3.02-.2,7.03-1.43,10.07.59,3.21,2.13,2.1,8.02-1.64,9.13Z"/>
    </g>
  </g>
</svg>
